<svg width="800" height="1422" viewBox="0 0 800 1422" fill="none" xmlns="http://www.w3.org/2000/svg">
<g clip-path="url(#clip0_1_2)">
<path opacity="0.05" d="M228 0C346 237 403.333 474 400 711C396.667 948 339.333 1185 228 1422" stroke="url(#paint0_linear_1_2)" stroke-width="2" stroke-linecap="round"/>
<path opacity="0.09" d="M250 0C353.333 237 403.333 474 400 711C396.667 948 346.667 1185 250 1422" stroke="url(#paint1_linear_1_2)" stroke-width="2" stroke-linecap="round"/>
<path opacity="0.13" d="M272 0C360.667 237 403.333 474 400 711C396.667 948 354 1185 272 1422" stroke="url(#paint2_linear_1_2)" stroke-width="2" stroke-linecap="round"/>
<path opacity="0.16" d="M294 0C368 237 403.333 474 400 711C396.667 948 361.333 1185 294 1422" stroke="url(#paint3_linear_1_2)" stroke-width="2" stroke-linecap="round"/>
<path opacity="0.2" d="M316 0C375.333 237 403.333 474 400 711C396.667 948 368.667 1185 316 1422" stroke="url(#paint4_linear_1_2)" stroke-width="2" stroke-linecap="round"/>
<path opacity="0.24" d="M338 0C382.667 237 403.333 474 400 711C396.667 948 376 1185 338 1422" stroke="url(#paint5_linear_1_2)" stroke-width="2" stroke-linecap="round"/>
<path opacity="0.28" d="M360 0C390 237 403.333 474 400 711C396.667 948 383.333 1185 360 1422" stroke="url(#paint6_linear_1_2)" stroke-width="2" stroke-linecap="round"/>
<path opacity="0.32" d="M382 0C397.333 237 403.333 474 400 711C396.667 948 390.667 1185 382 1422" stroke="url(#paint7_linear_1_2)" stroke-width="2" stroke-linecap="round"/>
<path opacity="0.35" d="M404 0C404.667 237 403.333 474 400 711C396.667 948 398 1185 404 1422" stroke="url(#paint8_linear_1_2)" stroke-width="2" stroke-linecap="round"/>
<path opacity="0.39" d="M426 0C412 237 403.333 474 400 711C396.667 948 405.333 1185 426 1422" stroke="url(#paint9_linear_1_2)" stroke-width="2" stroke-linecap="round"/>
<path opacity="0.43" d="M448 0C419.333 237 403.333 474 400 711C396.667 948 412.667 1185 448 1422" stroke="url(#paint10_linear_1_2)" stroke-width="2" stroke-linecap="round"/>
<path opacity="0.47" d="M470 0C426.667 237 403.333 474 400 711C396.667 948 420 1185 470 1422" stroke="url(#paint11_linear_1_2)" stroke-width="2" stroke-linecap="round"/>
<path opacity="0.51" d="M492 0C434 237 403.333 474 400 711C396.667 948 427.333 1185 492 1422" stroke="url(#paint12_linear_1_2)" stroke-width="2" stroke-linecap="round"/>
<path opacity="0.54" d="M514 0C441.333 237 403.333 474 400 711C396.667 948 434.667 1185 514 1422" stroke="url(#paint13_linear_1_2)" stroke-width="2" stroke-linecap="round"/>
<path opacity="0.58" d="M536 0C448.667 237 403.333 474 400 711C396.667 948 442 1185 536 1422" stroke="url(#paint14_linear_1_2)" stroke-width="2" stroke-linecap="round"/>
<path opacity="0.62" d="M558 0C456 237 403.333 474 400 711C396.667 948 449.333 1185 558 1422" stroke="url(#paint15_linear_1_2)" stroke-width="2" stroke-linecap="round"/>
<path opacity="0.66" d="M580 0C463.333 237 403.333 474 400 711C396.667 948 456.667 1185 580 1422" stroke="url(#paint16_linear_1_2)" stroke-width="2" stroke-linecap="round"/>
<path opacity="0.7" d="M602 0C470.667 237 403.333 474 400 711C396.667 948 464 1185 602 1422" stroke="url(#paint17_linear_1_2)" stroke-width="2" stroke-linecap="round"/>
<path opacity="0.73" d="M624 0C478 237 403.333 474 400 711C396.667 948 471.333 1185 624 1422" stroke="url(#paint18_linear_1_2)" stroke-width="2" stroke-linecap="round"/>
<path opacity="0.77" d="M646 0C485.333 237 403.333 474 400 711C396.667 948 478.667 1185 646 1422" stroke="url(#paint19_linear_1_2)" stroke-width="2" stroke-linecap="round"/>
<path opacity="0.81" d="M668 0C492.667 237 403.333 474 400 711C396.667 948 486 1185 668 1422" stroke="url(#paint20_linear_1_2)" stroke-width="2" stroke-linecap="round"/>
<path opacity="0.85" d="M690 0C500 237 403.333 474 400 711C396.667 948 493.333 1185 690 1422" stroke="url(#paint21_linear_1_2)" stroke-width="2" stroke-linecap="round"/>
<path opacity="0.89" d="M712 0C507.333 237 403.333 474 400 711C396.667 948 500.667 1185 712 1422" stroke="url(#paint22_linear_1_2)" stroke-width="2" stroke-linecap="round"/>
<path opacity="0.92" d="M734 0C514.667 237 403.333 474 400 711C396.667 948 508 1185 734 1422" stroke="url(#paint23_linear_1_2)" stroke-width="2" stroke-linecap="round"/>
<path opacity="0.96" d="M756 0C522 237 403.333 474 400 711C396.667 948 515.333 1185 756 1422" stroke="url(#paint24_linear_1_2)" stroke-width="2" stroke-linecap="round"/>
</g>
<defs>
<linearGradient id="paint0_linear_1_2" x1="400.137" y1="71100" x2="-16813.6" y2="71100" gradientUnits="userSpaceOnUse">
<stop stop-color="#4AB96C"/>
<stop offset="1" stop-color="#4AB96C"/>
</linearGradient>
<linearGradient id="paint1_linear_1_2" x1="400.156" y1="71100" x2="-14615.5" y2="71100" gradientUnits="userSpaceOnUse">
<stop stop-color="#4AB96C"/>
<stop offset="1" stop-color="#4AB96C"/>
</linearGradient>
<linearGradient id="paint2_linear_1_2" x1="400.181" y1="71100" x2="-12417.9" y2="71100" gradientUnits="userSpaceOnUse">
<stop stop-color="#4AB96C"/>
<stop offset="1" stop-color="#4AB96C"/>
</linearGradient>
<linearGradient id="paint3_linear_1_2" x1="400.215" y1="71100" x2="-10221.3" y2="71100" gradientUnits="userSpaceOnUse">
<stop stop-color="#4AB96C"/>
<stop offset="1" stop-color="#4AB96C"/>
</linearGradient>
<linearGradient id="paint4_linear_1_2" x1="400.266" y1="71100" x2="-8026.33" y2="71100" gradientUnits="userSpaceOnUse">
<stop stop-color="#4AB96C"/>
<stop offset="1" stop-color="#4AB96C"/>
</linearGradient>
<linearGradient id="paint5_linear_1_2" x1="400.347" y1="71100" x2="-5834.37" y2="71100" gradientUnits="userSpaceOnUse">
<stop stop-color="#4AB96C"/>
<stop offset="1" stop-color="#4AB96C"/>
</linearGradient>
<linearGradient id="paint6_linear_1_2" x1="400.5" y1="71100" x2="-3649.5" y2="71100" gradientUnits="userSpaceOnUse">
<stop stop-color="#4AB96C"/>
<stop offset="1" stop-color="#4AB96C"/>
</linearGradient>
<linearGradient id="paint7_linear_1_2" x1="400.893" y1="71100" x2="-1488.39" y2="71100" gradientUnits="userSpaceOnUse">
<stop stop-color="#4AB96C"/>
<stop offset="1" stop-color="#4AB96C"/>
</linearGradient>
<linearGradient id="paint8_linear_1_2" x1="404.167" y1="71100" x2="-191.071" y2="71100" gradientUnits="userSpaceOnUse">
<stop stop-color="#4AB96C"/>
<stop offset="1" stop-color="#4AB96C"/>
</linearGradient>
<linearGradient id="paint9_linear_1_2" x1="426" y1="71100" x2="-2243.44" y2="71100" gradientUnits="userSpaceOnUse">
<stop stop-color="#4AB96C"/>
<stop offset="1" stop-color="#4AB96C"/>
</linearGradient>
<linearGradient id="paint10_linear_1_2" x1="448" y1="71100" x2="-4395.1" y2="71100" gradientUnits="userSpaceOnUse">
<stop stop-color="#4AB96C"/>
<stop offset="1" stop-color="#4AB96C"/>
</linearGradient>
<linearGradient id="paint11_linear_1_2" x1="470" y1="71100" x2="-6561.25" y2="71100" gradientUnits="userSpaceOnUse">
<stop stop-color="#4AB96C"/>
<stop offset="1" stop-color="#4AB96C"/>
</linearGradient>
<linearGradient id="paint12_linear_1_2" x1="492" y1="71100" x2="-8732.51" y2="71100" gradientUnits="userSpaceOnUse">
<stop stop-color="#4AB96C"/>
<stop offset="1" stop-color="#4AB96C"/>
</linearGradient>
<linearGradient id="paint13_linear_1_2" x1="514" y1="71100" x2="-10906.2" y2="71100" gradientUnits="userSpaceOnUse">
<stop stop-color="#4AB96C"/>
<stop offset="1" stop-color="#4AB96C"/>
</linearGradient>
<linearGradient id="paint14_linear_1_2" x1="536" y1="71100" x2="-13081.1" y2="71100" gradientUnits="userSpaceOnUse">
<stop stop-color="#4AB96C"/>
<stop offset="1" stop-color="#4AB96C"/>
</linearGradient>
<linearGradient id="paint15_linear_1_2" x1="558" y1="71100" x2="-15256.9" y2="71100" gradientUnits="userSpaceOnUse">
<stop stop-color="#4AB96C"/>
<stop offset="1" stop-color="#4AB96C"/>
</linearGradient>
<linearGradient id="paint16_linear_1_2" x1="580" y1="71100" x2="-17433.2" y2="71100" gradientUnits="userSpaceOnUse">
<stop stop-color="#4AB96C"/>
<stop offset="1" stop-color="#4AB96C"/>
</linearGradient>
<linearGradient id="paint17_linear_1_2" x1="602" y1="71100" x2="-19609.8" y2="71100" gradientUnits="userSpaceOnUse">
<stop stop-color="#4AB96C"/>
<stop offset="1" stop-color="#4AB96C"/>
</linearGradient>
<linearGradient id="paint18_linear_1_2" x1="624" y1="71100" x2="-21786.7" y2="71100" gradientUnits="userSpaceOnUse">
<stop stop-color="#4AB96C"/>
<stop offset="1" stop-color="#4AB96C"/>
</linearGradient>
<linearGradient id="paint19_linear_1_2" x1="646" y1="71100" x2="-23963.8" y2="71100" gradientUnits="userSpaceOnUse">
<stop stop-color="#4AB96C"/>
<stop offset="1" stop-color="#4AB96C"/>
</linearGradient>
<linearGradient id="paint20_linear_1_2" x1="668" y1="71100" x2="-26141" y2="71100" gradientUnits="userSpaceOnUse">
<stop stop-color="#4AB96C"/>
<stop offset="1" stop-color="#4AB96C"/>
</linearGradient>
<linearGradient id="paint21_linear_1_2" x1="690" y1="71100" x2="-28318.3" y2="71100" gradientUnits="userSpaceOnUse">
<stop stop-color="#4AB96C"/>
<stop offset="1" stop-color="#4AB96C"/>
</linearGradient>
<linearGradient id="paint22_linear_1_2" x1="712" y1="71100" x2="-30495.8" y2="71100" gradientUnits="userSpaceOnUse">
<stop stop-color="#4AB96C"/>
<stop offset="1" stop-color="#4AB96C"/>
</linearGradient>
<linearGradient id="paint23_linear_1_2" x1="734" y1="71100" x2="-32673.3" y2="71100" gradientUnits="userSpaceOnUse">
<stop stop-color="#4AB96C"/>
<stop offset="1" stop-color="#4AB96C"/>
</linearGradient>
<linearGradient id="paint24_linear_1_2" x1="756" y1="71100" x2="-34850.8" y2="71100" gradientUnits="userSpaceOnUse">
<stop stop-color="#4AB96C"/>
<stop offset="1" stop-color="#4AB96C"/>
</linearGradient>
<clipPath id="clip0_1_2">
<rect width="1422" height="800" fill="white" transform="matrix(0 1 -1 0 800 0)"/>
</clipPath>
</defs>
</svg>
