<svg xmlns="http://www.w3.org/2000/svg" version="1.1" xmlns:xlink="http://www.w3.org/1999/xlink" xmlns:svgjs="http://svgjs.dev/svgjs" viewBox="0 0 800 800"><g fill="none" stroke-width="3.5" stroke="#4ab96c" stroke-linecap="round" stroke-dasharray="0 4.5"><line x1="50" y1="400" x2="750" y2="400" transform="rotate(0, 400, 400)" opacity="0.65"></line><line x1="39.5" y1="400" x2="760.5" y2="400" transform="rotate(3, 400, 400)" opacity="0.26"></line><line x1="341" y1="400" x2="459" y2="400" transform="rotate(6, 400, 400)" opacity="0.86"></line><line x1="357" y1="400" x2="443" y2="400" transform="rotate(9, 400, 400)" opacity="0.10"></line><line x1="147" y1="400" x2="653" y2="400" transform="rotate(12, 400, 400)" opacity="0.31"></line><line x1="267.5" y1="400" x2="532.5" y2="400" transform="rotate(15, 400, 400)" opacity="0.53"></line><line x1="480.5" y1="400" x2="319.5" y2="400" transform="rotate(18, 400, 400)" opacity="0.19"></line><line x1="586.5" y1="400" x2="213.5" y2="400" transform="rotate(21, 400, 400)" opacity="0.28"></line><line x1="128.5" y1="400" x2="671.5" y2="400" transform="rotate(24, 400, 400)" opacity="0.85"></line><line x1="209.5" y1="400" x2="590.5" y2="400" transform="rotate(27, 400, 400)" opacity="0.86"></line><line x1="324.5" y1="400" x2="475.5" y2="400" transform="rotate(30, 400, 400)" opacity="0.71"></line><line x1="673.5" y1="400" x2="126.5" y2="400" transform="rotate(33, 400, 400)" opacity="0.13"></line><line x1="287.5" y1="400" x2="512.5" y2="400" transform="rotate(36, 400, 400)" opacity="0.48"></line><line x1="437" y1="400" x2="363" y2="400" transform="rotate(39, 400, 400)" opacity="0.70"></line><line x1="588.5" y1="400" x2="211.5" y2="400" transform="rotate(42, 400, 400)" opacity="0.33"></line><line x1="689.5" y1="400" x2="110.5" y2="400" transform="rotate(45, 400, 400)" opacity="0.51"></line><line x1="247" y1="400" x2="553" y2="400" transform="rotate(48, 400, 400)" opacity="0.14"></line><line x1="264" y1="400" x2="536" y2="400" transform="rotate(51, 400, 400)" opacity="0.15"></line><line x1="357.5" y1="400" x2="442.5" y2="400" transform="rotate(54, 400, 400)" opacity="0.57"></line><line x1="357.5" y1="400" x2="442.5" y2="400" transform="rotate(57, 400, 400)" opacity="0.22"></line><line x1="627.5" y1="400" x2="172.5" y2="400" transform="rotate(60, 400, 400)" opacity="0.28"></line><line x1="402" y1="400" x2="398" y2="400" transform="rotate(63, 400, 400)" opacity="0.32"></line><line x1="482.5" y1="400" x2="317.5" y2="400" transform="rotate(66, 400, 400)" opacity="0.28"></line><line x1="646.5" y1="400" x2="153.5" y2="400" transform="rotate(69, 400, 400)" opacity="0.59"></line><line x1="50" y1="400" x2="750" y2="400" transform="rotate(72, 400, 400)" opacity="0.48"></line><line x1="215.5" y1="400" x2="584.5" y2="400" transform="rotate(75, 400, 400)" opacity="0.41"></line><line x1="698.5" y1="400" x2="101.5" y2="400" transform="rotate(78, 400, 400)" opacity="0.45"></line><line x1="476.5" y1="400" x2="323.5" y2="400" transform="rotate(81, 400, 400)" opacity="0.92"></line><line x1="239.5" y1="400" x2="560.5" y2="400" transform="rotate(84, 400, 400)" opacity="1.00"></line><line x1="164.5" y1="400" x2="635.5" y2="400" transform="rotate(87, 400, 400)" opacity="0.30"></line><line x1="625" y1="400" x2="175" y2="400" transform="rotate(90, 400, 400)" opacity="0.45"></line><line x1="272" y1="400" x2="528" y2="400" transform="rotate(93, 400, 400)" opacity="0.38"></line><line x1="178.5" y1="400" x2="621.5" y2="400" transform="rotate(96, 400, 400)" opacity="0.74"></line><line x1="646.5" y1="400" x2="153.5" y2="400" transform="rotate(99, 400, 400)" opacity="0.86"></line><line x1="349.5" y1="400" x2="450.5" y2="400" transform="rotate(102, 400, 400)" opacity="0.36"></line><line x1="56" y1="400" x2="744" y2="400" transform="rotate(105, 400, 400)" opacity="0.08"></line><line x1="556" y1="400" x2="244" y2="400" transform="rotate(108, 400, 400)" opacity="0.67"></line><line x1="93" y1="400" x2="707" y2="400" transform="rotate(111, 400, 400)" opacity="1.00"></line><line x1="138" y1="400" x2="662" y2="400" transform="rotate(114, 400, 400)" opacity="0.81"></line><line x1="287" y1="400" x2="513" y2="400" transform="rotate(117, 400, 400)" opacity="0.86"></line><line x1="486" y1="400" x2="314" y2="400" transform="rotate(120, 400, 400)" opacity="0.42"></line><line x1="614.5" y1="400" x2="185.5" y2="400" transform="rotate(123, 400, 400)" opacity="0.89"></line><line x1="250" y1="400" x2="550" y2="400" transform="rotate(126, 400, 400)" opacity="0.36"></line><line x1="385" y1="400" x2="415" y2="400" transform="rotate(129, 400, 400)" opacity="0.16"></line><line x1="117.5" y1="400" x2="682.5" y2="400" transform="rotate(132, 400, 400)" opacity="0.81"></line><line x1="457" y1="400" x2="343" y2="400" transform="rotate(135, 400, 400)" opacity="0.41"></line><line x1="91" y1="400" x2="709" y2="400" transform="rotate(138, 400, 400)" opacity="0.82"></line><line x1="655.5" y1="400" x2="144.5" y2="400" transform="rotate(141, 400, 400)" opacity="0.21"></line><line x1="368" y1="400" x2="432" y2="400" transform="rotate(144, 400, 400)" opacity="0.80"></line><line x1="396" y1="400" x2="404" y2="400" transform="rotate(147, 400, 400)" opacity="0.85"></line><line x1="688.5" y1="400" x2="111.5" y2="400" transform="rotate(150, 400, 400)" opacity="0.39"></line><line x1="303" y1="400" x2="497" y2="400" transform="rotate(153, 400, 400)" opacity="0.61"></line><line x1="32" y1="400" x2="768" y2="400" transform="rotate(156, 400, 400)" opacity="0.98"></line><line x1="128" y1="400" x2="672" y2="400" transform="rotate(159, 400, 400)" opacity="0.59"></line><line x1="561.5" y1="400" x2="238.5" y2="400" transform="rotate(162, 400, 400)" opacity="0.96"></line><line x1="97.5" y1="400" x2="702.5" y2="400" transform="rotate(165, 400, 400)" opacity="0.72"></line><line x1="584.5" y1="400" x2="215.5" y2="400" transform="rotate(168, 400, 400)" opacity="0.70"></line><line x1="345.5" y1="400" x2="454.5" y2="400" transform="rotate(171, 400, 400)" opacity="0.84"></line><line x1="163" y1="400" x2="637" y2="400" transform="rotate(174, 400, 400)" opacity="0.79"></line><line x1="283.5" y1="400" x2="516.5" y2="400" transform="rotate(177, 400, 400)" opacity="0.83"></line><line x1="161" y1="400" x2="639" y2="400" transform="rotate(180, 400, 400)" opacity="0.45"></line><line x1="534" y1="400" x2="266" y2="400" transform="rotate(183, 400, 400)" opacity="0.33"></line><line x1="206.5" y1="400" x2="593.5" y2="400" transform="rotate(186, 400, 400)" opacity="0.34"></line><line x1="226" y1="400" x2="574" y2="400" transform="rotate(189, 400, 400)" opacity="0.22"></line><line x1="202.5" y1="400" x2="597.5" y2="400" transform="rotate(192, 400, 400)" opacity="0.28"></line><line x1="669.5" y1="400" x2="130.5" y2="400" transform="rotate(195, 400, 400)" opacity="0.33"></line><line x1="248" y1="400" x2="552" y2="400" transform="rotate(198, 400, 400)" opacity="0.41"></line><line x1="116.5" y1="400" x2="683.5" y2="400" transform="rotate(201, 400, 400)" opacity="0.86"></line><line x1="699" y1="400" x2="101" y2="400" transform="rotate(204, 400, 400)" opacity="0.27"></line><line x1="428" y1="400" x2="372" y2="400" transform="rotate(207, 400, 400)" opacity="0.68"></line><line x1="701.5" y1="400" x2="98.5" y2="400" transform="rotate(210, 400, 400)" opacity="0.32"></line><line x1="156.5" y1="400" x2="643.5" y2="400" transform="rotate(213, 400, 400)" opacity="0.52"></line><line x1="437" y1="400" x2="363" y2="400" transform="rotate(216, 400, 400)" opacity="0.23"></line><line x1="485" y1="400" x2="315" y2="400" transform="rotate(219, 400, 400)" opacity="0.18"></line><line x1="256.5" y1="400" x2="543.5" y2="400" transform="rotate(222, 400, 400)" opacity="0.16"></line><line x1="156" y1="400" x2="644" y2="400" transform="rotate(225, 400, 400)" opacity="0.54"></line><line x1="329.5" y1="400" x2="470.5" y2="400" transform="rotate(228, 400, 400)" opacity="0.33"></line><line x1="560" y1="400" x2="240" y2="400" transform="rotate(231, 400, 400)" opacity="0.38"></line><line x1="314" y1="400" x2="486" y2="400" transform="rotate(234, 400, 400)" opacity="0.65"></line><line x1="608.5" y1="400" x2="191.5" y2="400" transform="rotate(237, 400, 400)" opacity="0.66"></line><line x1="709.5" y1="400" x2="90.5" y2="400" transform="rotate(240, 400, 400)" opacity="0.37"></line><line x1="101" y1="400" x2="699" y2="400" transform="rotate(243, 400, 400)" opacity="0.99"></line><line x1="391" y1="400" x2="409" y2="400" transform="rotate(246, 400, 400)" opacity="0.80"></line><line x1="84.5" y1="400" x2="715.5" y2="400" transform="rotate(249, 400, 400)" opacity="0.76"></line><line x1="273" y1="400" x2="527" y2="400" transform="rotate(252, 400, 400)" opacity="0.87"></line><line x1="338" y1="400" x2="462" y2="400" transform="rotate(255, 400, 400)" opacity="0.75"></line><line x1="517.5" y1="400" x2="282.5" y2="400" transform="rotate(258, 400, 400)" opacity="0.76"></line><line x1="32.5" y1="400" x2="767.5" y2="400" transform="rotate(261, 400, 400)" opacity="0.46"></line><line x1="574" y1="400" x2="226" y2="400" transform="rotate(264, 400, 400)" opacity="0.29"></line><line x1="202" y1="400" x2="598" y2="400" transform="rotate(267, 400, 400)" opacity="0.58"></line><line x1="656.5" y1="400" x2="143.5" y2="400" transform="rotate(270, 400, 400)" opacity="0.73"></line><line x1="346" y1="400" x2="454" y2="400" transform="rotate(273, 400, 400)" opacity="0.75"></line><line x1="331" y1="400" x2="469" y2="400" transform="rotate(276, 400, 400)" opacity="0.46"></line><line x1="392.5" y1="400" x2="407.5" y2="400" transform="rotate(279, 400, 400)" opacity="0.68"></line><line x1="163.5" y1="400" x2="636.5" y2="400" transform="rotate(282, 400, 400)" opacity="0.65"></line><line x1="478.5" y1="400" x2="321.5" y2="400" transform="rotate(285, 400, 400)" opacity="0.70"></line><line x1="247.5" y1="400" x2="552.5" y2="400" transform="rotate(288, 400, 400)" opacity="0.84"></line><line x1="283" y1="400" x2="517" y2="400" transform="rotate(291, 400, 400)" opacity="0.73"></line><line x1="612" y1="400" x2="188" y2="400" transform="rotate(294, 400, 400)" opacity="0.38"></line><line x1="437.5" y1="400" x2="362.5" y2="400" transform="rotate(297, 400, 400)" opacity="0.13"></line><line x1="232" y1="400" x2="568" y2="400" transform="rotate(300, 400, 400)" opacity="0.77"></line><line x1="318" y1="400" x2="482" y2="400" transform="rotate(303, 400, 400)" opacity="0.71"></line><line x1="214.5" y1="400" x2="585.5" y2="400" transform="rotate(306, 400, 400)" opacity="0.59"></line><line x1="408.5" y1="400" x2="391.5" y2="400" transform="rotate(309, 400, 400)" opacity="0.32"></line></g></svg>