<svg xmlns="http://www.w3.org/2000/svg" version="1.1" xmlns:xlink="http://www.w3.org/1999/xlink" xmlns:svgjs="http://svgjs.dev/svgjs" viewBox="0 0 800 800" opacity="1"><defs><linearGradient x1="50%" y1="0%" x2="50%" y2="100%" id="wwwhirl-grad"><stop stop-color="#4ab96c" stop-opacity="1" offset="45%"></stop><stop stop-color="hsla(0, 0%, 0%, 1.00)" stop-opacity="1" offset="100%"></stop></linearGradient></defs><g stroke-width="2" stroke="url(#wwwhirl-grad)" fill="none" stroke-linecap="round"><path d="M26.00000259399421 411.62231876827366C40.166669653690306 400.9973184735016 65.66667036114329 359.13481731209964 94.00000448053547 360.6223173533677C122.33333859992763 362.1098173946358 133.66667224768452 418.76231896636045 162.0000063670767 418.76231896636045C190.33334048646887 418.76231896636045 201.6666741342258 362.1098173946358 230.00000825361798 360.6223173533677C258.33334237301017 359.13481731209964 269.66667602076706 410.347318732901 298.00001014015925 411.62231876827366C326.3333442595514 412.8973188036463 337.66667790730827 363.1298174229339 366.00001202670046 366.74231752315643C394.3333461460926 370.35481762337895 405.66667979384954 428.96231924934165 434.00001391324173 428.96231924934165C462.33334803263386 428.96231924934165 473.66668168039075 367.37981754084274 502.000015799783 366.74231752315643C530.3333499191751 366.1048175054701 541.666683566932 421.0148190288522 570.0000176863242 425.9023191644473C598.3333518057165 430.78981930004244 609.6666854534733 387.43981809737244 638.0000195728655 390.20231817401316C666.3333536922578 392.9648182506539 677.6666873400146 443.41231965023167 706.0000214594068 439.16231953232284C734.3333555787988 434.912319414414 759.8333562862518 384.2523180089408 774.000023345948 369.80231760805077 " transform="rotate(102, 400, 400)"></path><path d="M37.00000251770027 411.280498429386C50.75000289917 400.9679981432837 75.50000358581553 360.33674701604065 103.000004348755 361.78049705609493C130.50000511169446 363.22424709614927 141.5000054168703 418.21049862164676 169.00000617980973 418.21049862164676C196.5000069427492 418.21049862164676 207.50000724792503 363.22424709614927 235.00000801086446 361.78049705609493C262.500008773804 360.33674701604065 273.5000090789798 410.04299839505376 301.0000098419193 411.280498429386C328.50001060485874 412.5179984637183 339.5000109100345 364.2142471236151 367.000011672974 367.72049722088985C394.50001243591345 371.22674731816466 405.5000127410893 428.110498896305 433.0000135040287 428.110498896305C460.5000142669682 428.110498896305 471.50001457214404 368.33924723805603 499.0000153350834 367.72049722088985C526.5000160980228 367.10174720372373 537.5000164031987 420.3967486823004 565.0000171661382 425.1404988139075C592.5000179290777 429.88424894551457 603.5000182342535 387.8092477782172 631.000018997193 390.49049785260377C658.5000197601325 393.17174792699035 669.5000200653083 442.1354992854041 697.0000208282477 438.01049917096316C724.5000215911871 433.88549905652224 749.2500222778326 384.71549769238646 763.0000226593024 370.6904973032873 " transform="rotate(99, 400, 400)"></path><path d="M48.00000244140632 410.9386475729202C61.33333614464971 400.9386472954877 85.3333368104878 361.5386462024035 112.00000421697456 362.93864624124404C138.6666716234613 364.3386462800846 149.33333858605602 417.6586477593549 176.00000599254278 417.6586477593549C202.66667339902952 417.6586477593549 213.33334036162427 364.3386462800846 240.000007768111 362.93864624124404C266.6666751745978 361.5386462024035 277.3333421371925 409.73864753962835 304.00000954367925 410.9386475729202C330.66667695016605 412.13864760621215 341.3333439127607 365.2986463067181 368.00001131924745 368.6986464010452C394.66667872573424 372.0986464953723 405.33334568832896 427.25864802569015 432.00001309481576 427.25864802569015C458.66668050130244 427.25864802569015 469.3333474638972 369.29864641769115 496.0000148703839 368.6986464010452C522.6666822768707 368.0986463843993 533.3333492394653 419.7786478181706 560.0000166459522 424.37864794578957C586.666684052439 428.9786480734085 597.3333510150337 388.1786469414838 624.0000184215204 390.77864701361625C650.6666858280073 393.3786470857487 661.3333527906019 440.85864840299837 688.0000201970887 436.85864829202535C714.6666876035754 432.85864818105233 738.6666882694134 385.178646858254 752.0000219726569 371.5786464809458 " transform="rotate(96, 400, 400)"></path><path d="M59.00000236511238 410.5968329560785C71.9166693901294 400.9093326873157 95.16667003516005 362.74058162839043 121.00000408519412 364.0968316660172C146.83333813522813 365.453081703644 157.1666717552418 417.10683313668704 183.0000058052758 417.10683313668704C208.83333985530987 417.10683313668704 219.1666734753235 365.453081703644 245.00000752535757 364.0968316660172C270.8333415753916 362.74058162839043 281.1666751954052 409.43433292382696 307.0000092454393 410.5968329560785C332.83334329547336 411.75933298833 343.16667691548696 366.3830817294452 369.00001096552097 369.67683182082453C394.83334501555504 372.9705819122039 405.1666786355687 426.40683339469933 431.0000126856027 426.40683339469933C456.8333467356368 426.40683339469933 467.16668035565044 370.25808183695034 493.0000144056845 369.67683182082453C518.8333484557185 369.0955818046988 529.1666820757321 419.16058319366476 555.0000161257661 423.61683331729563C580.8333501758003 428.07308344092655 591.1666837958139 388.54808234437445 617.000017845848 391.06683241425276C642.8333518958821 393.58558248413107 653.1666855158957 439.5818337602167 679.0000195659296 435.70683365271157C704.8333536159636 431.8318335452065 728.0833542609943 385.6418322637456 741.0000212860114 372.46683189822824 " transform="rotate(93, 400, 400)"></path><path d="M70.00000228881842 410.25498972900726C82.50000263560909 400.87998946891423 105.00000325983231 363.94248844414784 130.00000395341365 365.2549884805608C155.00000464699497 366.56748851697387 165.00000492442751 416.55498990378976 190.00000561800886 416.55498990378976C215.0000063115902 416.55498990378976 225.00000658902275 366.56748851697387 250.00000728260406 365.2549884805608C275.00000797618543 363.94248844414784 285.000008253618 409.1299896977961 310.0000089471993 410.25498972900726C335.00000964078066 411.3799897602184 345.00000991821315 367.46748854194277 370.0000106117945 370.6549886303744C395.00001130537584 373.842488718806 405.0000115828084 425.554990153479 430.0000122763897 425.554990153479C455.000012969971 425.554990153479 465.0000132474036 371.21748864598 490.00001394098496 370.6549886303744C515.0000146345662 370.09248861476885 525.0000149119987 418.5424899589295 550.0000156055801 422.85499007857226C575.0000162991615 427.16749019821503 585.000016576594 388.9174891370356 610.0000172701755 391.3549892046598C635.0000179637568 393.79248927228394 645.0000182411893 438.3049905072055 670.0000189347705 434.5549904031683C695.0000196283519 430.8049902991311 717.5000202525752 386.10498905900766 730.0000205993658 373.3549887052812 " transform="rotate(90, 400, 400)"></path><path d="M81.00000221252448 409.91316557542234C93.08333588108879 400.8506653239991 114.83333648450457 365.1444143333916 139.0000038216332 366.4131643685908C163.1666711587618 367.6819144037901 172.83333809361326 416.00316574437875 197.0000054307419 416.00316574437875C221.16667276787052 416.00316574437875 230.833339702722 367.6819144037901 255.00000703985063 366.4131643685908C279.16667437697924 365.1444143333916 288.83334131183074 408.8256655452516 313.00000864895935 409.91316557542234C337.16667598608797 411.00066560559316 346.8333429209394 368.5519144279267 371.000010258068 371.6331645134106C395.16667759519663 374.7144145988945 404.8333445300481 424.70316598574504 429.00001186717674 424.70316598574504C453.16667920430535 424.70316598574504 462.8333461391569 372.176914528496 487.00001347628546 371.6331645134106C511.1666808134141 371.0894144983252 520.8333477482655 417.92441579768047 545.0000150853941 422.09316591333516C569.1666824225229 426.26191602898984 578.8333493573742 389.2869150031831 603.000016694503 391.6431650685531C627.1666840316316 393.99941513392315 636.8333509664831 437.02816632768065 661.0000183036116 433.40316622711134C685.1666856407402 429.7781661265421 706.9166862441559 386.5681649277561 719.0000199127203 374.24316458582047 " transform="rotate(87, 400, 400)"></path><path d="M92.00000213623053 409.57132044100246C103.6666691265685 400.821320198249 124.66666970917683 366.34631924180036 148.00000368985275 367.5713192757858C171.33333767052864 368.7963193097713 180.666671262799 415.45132060413283 204.00000524347493 415.45132060413283C227.33333922415085 415.45132060413283 236.66667281642125 368.7963193097713 260.00000679709717 367.5713192757858C283.33334077777306 366.34631924180036 292.66667437004344 408.52132041187207 316.0000083507193 409.57132044100246C339.3333423313953 410.6213204701329 348.66667592366565 369.6363193330756 372.00000990434154 372.61131941561183C395.3333438850174 375.586319498148 404.6666774772878 423.8513208371761 428.00001145796375 423.8513208371761C451.3333454386397 423.8513208371761 460.6666790309101 373.136319430177 484.000013011586 372.61131941561183C507.33334699226185 372.08631940104664 516.6666805845323 417.30632065559655 540.0000145652082 421.33132076726315C563.3333485458841 425.35632087892975 572.6666821381544 389.6563198884956 596.0000161188304 391.9313199516115C619.3333500995063 394.2063200147274 628.6666836917767 435.75132116732084 652.0000176724526 432.25132107021943C675.3333516531285 428.7513209731181 696.3333522357368 387.0313198156695 708.0000192260748 375.13131948552484 " transform="rotate(84, 400, 400)"></path><path d="M103.00000205993659 409.2294943800689C114.25000237204819 400.7919941459852 134.5000029338491 367.54824322369547 157.00000355807228 368.72949325646715C179.50000418229547 369.9107432892389 188.5000044319848 414.8994945373732 211.00000505620795 414.8994945373732C233.50000568043117 414.8994945373732 242.50000593012047 369.9107432892389 265.0000065543437 368.72949325646715C287.5000071785669 367.54824322369547 296.5000074282562 408.2169943519789 319.0000080524794 409.2294943800689C341.5000086767026 410.241994408159 350.50000892639184 370.7207433117109 373.00000955061506 373.58949339129936C395.5000101748383 376.45824347088785 404.5000104245276 422.99949476209355 427.00001104875076 422.99949476209355C449.500011672974 422.99949476209355 458.5000119226633 374.09574340534436 481.00001254688647 373.58949339129936C503.50001317110963 373.08324337725435 512.5000134207988 416.6882445869989 535.0000140450221 420.5694946946774C557.5000146692455 424.4507448023559 566.5000149189347 390.02574384729445 589.0000155431579 392.2194939081562C611.5000161673811 394.41324396901797 620.5000164170704 434.47449508044735 643.0000170412935 431.0994949868139C665.5000176655168 427.7244948931804 685.7500182273176 387.4944937770693 697.0000185394292 376.0194934587155 " transform="rotate(81, 400, 400)"></path><path d="M114.00000198364263 408.88765306034634C124.83333561752788 400.7626528349324 144.33333615852135 368.7501519468015 166.0000034262918 369.88765197835943C187.6666706940623 371.0251520099174 196.3333376011705 414.3476532118245 218.000004868941 414.3476532118245C239.6666721367115 414.3476532118245 248.3333390438197 371.0251520099174 270.0000063115902 369.88765197835943C291.6666735793607 368.7501519468015 300.33334048646896 407.91265303329664 322.0000077542394 408.88765306034634C343.6666750220099 409.862653087396 352.3333419291181 371.8051520315571 374.0000091968886 374.5676521081979C395.6666764646591 377.3301521848386 404.3333433717673 422.1476534282219 426.0000106395378 422.1476534282219C447.66667790730827 422.1476534282219 456.3333448144165 375.0551521217227 478.00001208218697 374.5676521081979C499.66667934995746 374.08015209467305 508.33334625706556 416.07015325961225 530.0000135248362 419.8076533633027C551.6666807926067 423.54515346699304 560.3333476997147 390.39515254730424 582.0000149674854 392.50765260591186C603.6666822352558 394.6201526645194 612.3333491423641 433.1976537347848 634.0000164101345 429.9476536446192C655.666683677905 426.69765355445367 675.1666842188985 387.95765247968 686.0000178527837 376.90765217311707 " transform="rotate(78, 400, 400)"></path><path d="M125.00000190734869 408.5458174626696C135.41666886300757 400.73331724592543 154.1666693831936 369.95206639195345 175.00000329451137 371.0458164222976C195.83333720582914 372.1395664526418 204.16667077035626 413.79581760832167 225.00000468167406 413.79581760832167C245.83333859299182 413.79581760832167 254.16667215751897 372.1395664526418 275.00000606883674 371.0458164222976C295.8333399801545 369.95206639195345 304.16667354468166 407.6083174366603 325.0000074559994 408.5458174626696C345.8333413673172 409.4833174886789 354.16667493184434 372.88956647344924 375.00000884316205 375.54581654714224C395.8333427544799 378.20206662083524 404.166676319007 421.2958178163961 425.0000102303248 421.2958178163961C445.83334414164256 421.2958178163961 454.1666777061697 376.0145665601469 475.0000116174875 375.54581654714224C495.83334552880524 375.0770665341376 504.1666790933323 415.45206765427145 525.0000130046501 419.0458177539738C545.8333469159679 422.6395678536761 554.166680480495 390.76456696935986 575.0000143918128 392.79581702571335C595.8333483031306 394.82706708206683 604.1666818676579 431.92081811116816 625.0000157789755 428.7958180244705C645.8333496902933 425.6708179377728 664.5833502104794 388.4208169043366 675.0000171661382 377.79581660956455 " transform="rotate(75, 400, 400)"></path><path d="M136.00000183105476 408.2039952164333C146.00000210848728 400.70399500835896 164.00000260786584 371.15399418854577 184.00000316273093 372.2039942176762C204.00000371759597 373.25399424680666 212.000003939542 413.24399535625935 232.00000449440708 413.24399535625935C252.00000504927215 413.24399535625935 260.0000052712182 373.25399424680666 280.0000058260833 372.2039942176762C300.0000063809483 371.15399418854577 308.00000660289436 407.3039951914644 328.00000715775946 408.2039952164333C348.00000771262455 409.1039952414023 356.00000793457053 373.97399426678174 376.0000084894356 376.5239943375271C396.00000904430067 379.07399440827237 404.0000092662467 420.44399555601075 424.0000098211118 420.44399555601075C444.0000103759769 420.44399555601075 452.0000105979229 376.97399435001154 472.000011152788 376.5239943375271C492.000011707653 376.0739943250426 500.00001192959905 414.8339954003711 520.0000124844642 418.28399549608537C540.0000130393292 421.73399559179956 548.0000132612753 391.133994742856 568.0000138161404 393.0839947969553C588.0000143710055 395.0339948510547 596.0000145929514 430.64399583899194 616.0000151478165 427.6439957557622C636.0000157026815 424.6439956725324 654.00001620206 388.88399468043366 664.0000164794926 378.68399439745247 " transform="rotate(72, 400, 400)"></path><path d="M146.9999864959717 407.86215771140803C156.5833200951779 400.67465751200336 173.83332057374906 372.3559067263491 192.9999877721614 373.36215675426575C212.16665497057375 374.3684067821824 219.8333218499387 412.6921578454079 238.99998904835104 412.6921578454079C258.1666562467634 412.6921578454079 265.8333231261284 374.3684067821824 284.9999903245407 373.36215675426575C304.1666575229531 372.3559067263491 311.83332440231806 406.99965768747944 330.9999916007304 407.86215771140803C350.1666587991428 408.72465773533656 357.83332567850766 375.05840680132525 376.99999287692003 377.5021568691228C396.1666600753324 379.9459069369204 403.8333269546974 419.5921580368364 422.99999415310975 419.5921580368364C442.1666613515221 419.5921580368364 449.83332823088705 377.9334068810871 468.9999954292994 377.5021568691228C488.16666262771173 377.07090685715855 495.83332950707666 414.2159078876817 514.9999967054891 417.52215797940784C534.1666639039015 420.82840807113394 541.8333307832664 391.503407257563 560.9999979816788 393.37215730940824C580.1666651800912 395.24090736125345 587.8333320594561 429.36715830802666 606.9999992578685 426.4921582282648C626.1666664562807 423.617158148503 643.4166669348518 389.34715719774164 653.000000534058 379.5721569265514 " transform="rotate(69, 400, 400)"></path><path d="M157.99998641967778 407.52032402107994C167.1666533406576 400.64532383034503 183.6666537984213 373.55782307884965 201.99998764038094 374.52032310555256C220.33332148234058 375.4828231322554 227.66665501912445 412.14032414925373 245.9999888610841 412.14032414925373C264.33332270304373 412.14032414925373 271.6666562398276 375.4828231322554 289.99999008178725 374.52032310555256C308.3333239237469 373.55782307884965 315.6666574605308 406.6953239981917 333.99999130249046 407.52032402107994C352.3333251444501 408.3453240439681 359.6666586812339 376.14282315056596 377.99999252319355 378.48032321541586C396.3333263651532 380.8178232802657 403.6666599019371 418.74032433235925 421.99999374389677 418.74032433235925C440.3333275858564 418.74032433235925 447.6666611226403 378.89282322685995 465.9999949645999 378.48032321541586C484.3333288065595 378.0678232039717 491.6666623433434 413.59782418968956 509.9999961853031 416.76032427742757C528.3333300272627 419.92282436516564 535.6666635640465 391.87282358696734 553.9999974060063 393.6603236365584C572.3333312479659 395.4478236861495 579.6666647847499 428.09032459175864 597.9999986267094 425.3403245154647C616.3333324686689 422.5903244391708 632.8333329264326 389.8103235297469 641.9999998474125 380.4603232703475 " transform="rotate(66, 400, 400)"></path><path d="M168.99998634338385 407.17849033075186C177.7499865861373 400.61599014868676 193.49998702309355 374.7597394313502 210.9999875086005 375.6784894568394C228.4999879941074 376.59723948232846 235.49998818831023 411.5884904530996 252.99998867381714 411.5884904530996C270.49998915932406 411.5884904530996 277.49998935352687 376.59723948232846 294.9999898390338 375.6784894568394C312.4999903245407 374.7597394313502 319.4999905187435 406.39099030890407 336.99999100425043 407.17849033075186C354.49999148975735 407.96599035259965 361.49999168396016 377.2272394998067 378.9999921694671 379.45848956170886C396.49999265497405 381.689739623611 403.4999928491768 417.8884906278821 420.9999933346837 417.8884906278821C438.4999938201907 417.8884906278821 445.4999940143935 379.85223957263275 462.9999944999004 379.45848956170886C480.4999949854073 379.06473955078496 487.4999951796101 412.9797404916974 504.99999566511707 415.99849057544736C522.4999961506239 419.0172406591973 529.4999963448267 392.24223991637166 546.9999968303338 393.9484899637086C564.4999973158407 395.65474001104553 571.4999975100434 426.81349087549063 588.9999979955503 424.1884908026646C606.4999984810572 421.5634907298386 622.2499989180135 390.2734898617521 630.999999160767 381.3484896141436 " transform="rotate(63, 400, 400)"></path><path d="M179.9999862670899 406.8366585477724C188.33331983161702 400.58665837437707 203.3333202477658 375.96165769119943 219.99998737682003 376.8366577154748C236.66665450587425 377.71165773975014 243.33332135749595 411.03665866429407 259.9999884865502 411.03665866429407C276.6666556156044 411.03665866429407 283.33332246722614 377.71165773975014 299.99998959628033 376.8366577154748C316.6666567253345 375.96165769119943 323.3333235769563 406.086658526965 339.9999907060105 406.8366585477724C356.6666578350647 407.5866585685799 363.3333246866864 378.31165775639613 379.9999918157406 380.43665781535054C396.6666589447948 382.56165787430496 403.33332579641655 417.0366588307536 419.9999929254708 417.0366588307536C436.666660054525 417.0366588307536 443.3333269061467 380.81165782575425 459.9999940352009 380.43665781535054C476.6666611642551 380.0616578049468 483.33332801587676 412.3616587010539 499.99999514493106 415.23665878081573C516.6666622739854 418.11165886057756 523.333329125607 392.6116581531246 539.9999962546613 394.2366581982074C556.6666633837156 395.8616582432902 563.3333302353371 425.53665906657125 579.9999973643913 423.0366589972131C596.6666644934455 420.536658927855 611.6666649095944 390.73665810110606 619.9999984741214 382.23665786528835 " transform="rotate(60, 400, 400)"></path><path d="M190.99998619079594 406.4948248574443C198.9166530770967 400.5573246927188 213.16665347243807 377.1635740437 228.99998724503956 377.9948240667616C244.83332101764108 378.8260740898232 251.1666545266817 410.48482496813995 266.99998829928325 410.48482496813995C282.8333220718847 410.48482496813995 289.16665558092535 378.8260740898232 304.99998935352687 377.9948240667616C320.83332312612833 377.1635740437 327.166656635169 405.78232483767727 342.9999904077705 406.4948248574443C358.833324180372 407.2073248772114 365.1666576894126 379.39607410563684 380.9999914620141 381.41482416164354C396.8333252346156 383.43357421765023 403.1666587436563 416.18482512627645 418.99999251625775 416.18482512627645C434.83332628885927 416.18482512627645 441.1666597978999 381.77107417152706 456.99999357050143 381.41482416164354C472.8333273431029 381.05857415176 479.1666608521435 411.7435750030617 494.99999462474506 414.4748250788355C510.8333283973466 417.20607515460927 517.1666619063872 392.9810744825289 532.9999956789886 394.5248245253576C548.8333294515903 396.06857456818625 555.1666629606309 424.25982535030323 570.9999967332324 421.884825284413C586.8333305058338 419.5098252185228 601.0833309011753 391.1998244331113 608.9999977874759 383.1248242090845 " transform="rotate(57, 400, 400)"></path><path d="M201.999986114502 406.1529968891622C209.49998632257638 400.52799673310636 222.99998669711033 378.3654961182465 237.99998711325912 379.15299614009433C252.99998752940792 379.9404961619421 258.99998769586745 409.93299699403167 273.99998811201624 409.93299699403167C288.9999885281651 409.93299699403167 294.99998869462456 379.9404961619421 309.9999891107734 379.15299614009433C324.9999895269222 378.3654961182465 330.99998969338174 405.47799687043545 345.99999010953053 406.1529968891622C360.9999905256793 406.82799690788886 366.9999906921388 380.4804961769235 381.99999110828765 382.3929962299825C396.99999152443644 384.3054962830414 402.99999169089597 415.3329971438452 417.99999210704476 415.3329971438452C432.99999252319355 415.3329971438452 438.99999268965314 382.7304962393458 453.99999310580193 382.3929962299825C468.9999935219507 382.0554962206191 474.9999936884102 411.1254970271155 489.99999410455905 413.71299709890116C504.9999945207079 416.3004971706868 510.9999946871674 393.35049653397914 525.9999951033162 394.81299657455367C540.9999955194651 396.2754966151282 546.9999956859245 422.9829973560811 561.9999961020733 420.7329972936588C576.9999965182221 418.4829972312365 590.499996892756 391.66299648716245 597.9999971008303 384.01299627492654 " transform="rotate(54, 400, 400)"></path><path d="M212.99998603820805 405.8111631988341C220.08331956805608 400.49866305144803 232.8333199217826 379.56741247074706 246.99998698147868 380.31116249138114C261.16665404117475 381.05491251201516 266.8333208650532 409.3811632978775 280.9999879247493 409.3811632978775C295.16665498444536 409.3811632978775 300.83332180832383 381.05491251201516 314.99998886801995 380.31116249138114C329.166655927716 379.56741247074706 334.83332275159444 405.1736631811478 348.99998981129056 405.8111631988341C363.1666568709866 406.4486632165204 368.83332369486504 381.5649125261642 382.99999075456117 383.3711625762755C397.16665781425723 385.17741262638674 402.8333246381357 414.4811634393681 416.9999916978318 414.4811634393681C431.1666587575279 414.4811634393681 436.8333255814063 383.68991258511863 450.99999264110244 383.3711625762755C465.1666597007985 383.0524125674323 470.8333265246769 410.5074133291233 484.99999358437304 412.95116339692095C499.16666064406917 415.3949134647185 504.8333274679476 393.71991286338346 518.9999945276437 395.10116290170384C533.1666615873398 396.48241294002423 538.8333284112182 421.7061636398131 552.9999954709143 419.5811635808587C567.1666625306103 417.4561635219043 579.9166628843368 392.1261628191677 586.9999964141849 384.90116261872265 " transform="rotate(51, 400, 400)"></path><path d="M223.9999859619141 405.4693218791115C230.6666528135358 400.46932174039523 242.66665314645485 380.7693211938531 255.99998684969822 381.4693212132734C269.3333205529416 382.1693212326937 274.66665403423895 408.8293219723288 287.99998773748234 408.8293219723288C301.3333214407257 408.8293219723288 306.6666549220231 382.1693212326937 319.99998862526644 381.4693212132734C333.33332232850984 380.7693211938531 338.6666558098072 404.86932186246554 351.99998951305054 405.4693218791115C365.33332321629393 406.0693218957574 370.6666566975913 382.64932124601046 383.9999904008347 384.34932129317394C397.3333241040781 386.0493213403375 402.66665758537545 413.62932210549644 415.99999128861884 413.62932210549644C429.3333249918621 413.62932210549644 434.66665847315954 384.64932130149697 447.9999921764029 384.34932129317394C461.3333258796463 384.049321284851 466.6666593609436 409.8893220017367 479.99999306418704 412.18932206554615C493.33332676743044 414.4893221293556 498.6666602487278 394.08932156339324 511.99999395197113 395.3893215994595C525.3333276552146 396.68932163552574 530.666661136512 420.42932229415055 543.9999948397553 418.42932223866404C557.3333285429986 416.42932218317753 569.3333288759177 392.5893215217784 575.9999957275394 385.78932133312424 " transform="rotate(48, 400, 400)"></path><path d="M234.99998588562016 405.1274958181779C241.2499860590155 400.43999568813143 252.49998637112708 381.9712451757482 264.99998671791775 382.62749519395476C277.4999870647084 383.28374521216125 282.49998720342467 408.2774959055692 294.99998755021534 408.2774959055692C307.499987897006 408.2774959055692 312.4999880357223 383.28374521216125 324.999988382513 382.62749519395476C337.49998872930365 381.9712451757482 342.49998886801995 404.56499580257235 354.9999892148106 405.1274958181779C367.4999895616013 405.68999583378354 372.49998970031754 383.7337452246457 384.9999900471082 385.3274952688615C397.4999903938989 386.92124531307735 402.49999053261513 412.77749603041383 414.9999908794058 412.77749603041383C427.49999122619647 412.77749603041383 432.4999913649127 385.6087452766643 444.9999917117034 385.3274952688615C457.49999205849406 385.04624526105874 462.4999921972103 409.271245933139 474.999992544001 411.4274959929604C487.4999928907917 413.5837460527818 492.49999302950795 394.4587455221921 504.9999933762987 395.6774955560042C517.4999937230893 396.89624558981626 522.4999938618056 419.15249620727707 534.9999942085963 417.27749615525846C547.4999945553868 415.40249610323986 558.7499948674986 393.0524954831782 564.9999950408939 386.67749530631494 " transform="rotate(45, 400, 400)"></path><path d="M245.9999858093262 404.7856621278499C251.83331930449518 400.4106620064731 262.33331959579937 383.1731615282488 273.9999865861373 383.78566154524157C285.66665357647526 384.3981615622343 290.33332037261044 407.725662209415 301.9999873629484 407.725662209415C313.6666543532864 407.725662209415 318.3333211494216 384.3981615622343 329.9999881397595 383.78566154524157C341.66665513009747 383.1731615282488 346.33332192623266 404.26066211328464 357.9999889165706 404.7856621278499C369.66665590690855 405.3106621424151 374.3333227030438 384.81816157388647 385.99998969338174 386.3056616151545C397.6666566837197 387.7931616564226 402.3333234798548 411.9256623259367 413.9999904701928 411.9256623259367C425.6666574605308 411.9256623259367 430.33332425666595 386.5681616224372 441.99999124700395 386.3056616151545C453.66665823734184 386.0431616078719 458.3333250334771 408.6531622351469 469.999992023815 410.6656622909802C481.66665901415297 412.6781623468135 486.33332581028816 394.8281618515964 497.99999280062616 395.9656618831544C509.6666597909641 397.1031619147123 514.3333265870992 417.87566249100905 525.9999935774372 416.12566244245835C537.6666605677751 414.3756623939077 548.1666608590793 393.5156618151834 553.9999943542483 387.56566165011105 " transform="rotate(42, 400, 400)"></path><path d="M256.99998573303225 404.44382557649885C262.41665254997486 400.3813254637919 272.1666528204716 384.3750750197264 282.9999864543569 384.9438250355054C293.8333200882421 385.5125750512844 298.1666535417962 407.17382565223795 308.99998717568144 407.17382565223795C319.83332080956666 407.17382565223795 324.1666542631208 385.5125750512844 334.999987897006 384.9438250355054C345.8333215308913 384.3750750197264 350.1666549844454 403.95632556297403 360.99998861833063 404.44382557649885C371.8333222522159 404.9313255900237 376.16665570577 385.90257506210423 386.99998933965526 387.2838251004246C397.8333229735405 388.665075138745 402.1666564270946 411.0738257604366 412.9999900609798 411.0738257604366C423.83332369486504 411.0738257604366 428.1666571484192 387.52757510718703 438.9999907823044 387.2838251004246C449.83332441618967 387.0400750936622 454.16665786974374 408.0350756761318 464.999991503629 409.903825727977C475.8333251375143 411.7725757798222 480.1666585910683 395.1975753199778 490.99999222495364 396.2538253492816C501.83332585883886 397.3100753785854 506.166659312393 416.5988259137181 516.9999929462782 414.9738258686353C527.8333265801634 413.34882582355254 537.5833268506601 393.9788252861657 542.9999936676028 388.4538251328842 " transform="rotate(39, 400, 400)"></path><path d="M267.9999856567383 404.10199570086803C272.99998579545456 400.3519955968308 281.9999860451438 385.57699518692425 291.99998632257643 386.10199520148944C301.9999866000089 386.6269952160547 305.99998671098194 406.62199577078104 315.9999869884145 406.62199577078104C325.99998726584704 406.62199577078104 329.99998737682006 386.6269952160547 339.99998765425255 386.10199520148944C349.9999879316851 385.57699518692425 353.9999880426581 403.6519956883836 363.99998832009067 404.10199570086803C373.9999885975232 404.5519957133525 377.9999887084962 386.98699522604227 387.9999889859287 388.2619952614149C397.9999892633613 389.53699529678755 401.9999893743343 410.22199587065677 411.99998965176684 410.22199587065677C421.9999899291994 410.22199587065677 425.9999900401724 388.4869952676571 435.9999903176049 388.2619952614149C445.99999059503745 388.03699525517266 449.99999070601046 407.41699579283693 459.999990983443 409.14199584069405C469.99999126087556 410.8669958885512 473.9999913718486 395.56699546407935 483.9999916492811 396.54199549112906C493.9999919267137 397.5169955181787 497.99999203768664 415.32199601214734 507.9999923151192 413.82199597053244C517.9999925925517 412.3219959289176 526.999992842241 394.4419954328682 531.9999929809572 389.3419952913776 " transform="rotate(36, 400, 400)"></path><path d="M279.0000008392334 403.76016201053994C283.58333429972333 400.32266191517255 291.8333345286052 386.7789115394248 301.000001449585 387.26016155277625C310.1666683705648 387.74141156612774 313.8333351389567 406.07016207462686 323.0000020599366 406.07016207462686C332.16666898091637 406.07016207462686 335.83333574930833 387.74141156612774 345.00000267028815 387.26016155277625C354.166669591268 386.7789115394248 357.83333635965994 403.34766199909586 367.00000328063976 403.76016201053994C376.1666702016196 404.1726620219841 379.8333369700115 388.071411575283 389.0000038909913 389.24016160770793C398.16667081197113 390.4089116401328 401.8333375803631 409.3701621661796 411.0000045013429 409.3701621661796C420.16667142232274 409.3701621661796 423.8333381907147 389.44641161343 433.00000511169446 389.24016160770793C442.1666720326743 389.0339116019859 445.83333880106625 406.79891209484475 455.00000572204607 408.3801621387138C464.1666726430259 409.9614121825828 467.8333394114178 395.93641179348367 477.0000063323977 396.83016181827924C486.1666732533775 397.72391184307475 489.83334002176946 414.0451622958793 499.0000069427492 412.67016225773233C508.166673863729 411.2951622195854 516.4166740926108 394.90516176487347 521.0000075531008 390.2301616351738 " transform="rotate(33, 400, 400)"></path><path d="M290.00000076293946 403.4183283202119C294.16666754520304 400.2933282335142 301.66666775327747 387.9808278919254 310.00000131780456 388.41832790406306C318.33333488233166 388.8558279162008 321.6666683081425 405.51832837847275 330.0000018726696 405.51832837847275C338.33333543719675 405.51832837847275 341.6666688630076 388.8558279162008 350.0000024275347 388.41832790406306C358.3333359920618 387.9808278919254 361.66666941787264 403.04332830980815 370.0000029823998 403.4183283202119C378.3333365469269 403.7933283306156 381.66666997273774 389.15582792452375 390.00000353726483 390.2183279540009C398.3333371017919 391.28082798347816 401.66667052760283 408.5183284617025 410.0000040921299 408.5183284617025C418.333337656657 408.5183284617025 421.6666710824679 390.4058279592028 430.00000464699497 390.2183279540009C438.3333382115221 390.0308279487991 441.6666716373329 406.18082839685263 450.00000520186006 407.6183284367336C458.3333387663872 409.05582847661447 461.666672192198 396.305828122888 470.00000575672516 397.1183281454294C478.3333393212523 397.9308281679708 481.6666727470631 412.7683285796113 490.0000063115902 411.5183285449322C498.3333398761173 410.2683285102532 505.8333400841917 395.3683280968787 510.00000686645524 391.1183279789699 " transform="rotate(30, 400, 400)"></path><path d="M301.00000068664554 403.07649653723246C304.75000079068275 400.2639964592045 311.5000009779497 389.1827461517746 319.00000118602406 389.5764961626985C326.5000013940985 389.97024617362246 329.5000014773283 404.9664965896672 337.00000168540265 404.9664965896672C344.5000018934771 404.9664965896672 347.5000019767068 389.97024617362246 355.00000218478124 389.5764961626985C362.50000239285566 389.1827461517746 365.5000024760854 402.7389965278691 373.00000268415977 403.07649653723246C380.5000028922342 403.4139965465958 383.50000297546393 390.2402461811131 391.00000318353835 391.1964962076426C398.5000033916127 392.15274623417207 401.5000034748425 407.66649666457397 409.00000368291694 407.66649666457397C416.5000038909913 407.66649666457397 419.5000039742211 391.3652462123243 427.00000418229547 391.1964962076426C434.5000043903699 391.02774620296094 437.50000447359963 405.5627466062091 445.00000468167406 406.85649664210194C452.5000048897485 408.1502466779948 455.5000049729782 396.67524635964094 463.00000518105264 397.4064963799282C470.50000538912707 398.13774640021546 473.5000054723568 411.4914967706919 481.0000056804312 410.3664967394808C488.5000058885056 409.2414967082696 495.25000607577255 395.8314963362326 499.0000061798097 392.00649623011464 " transform="rotate(27, 400, 400)"></path><path d="M311.999992980957 402.73466284690437C315.3333264067679 400.23466277754625 321.3333265732274 390.3846625042752 327.9999934248491 390.7346625139853C334.6666602764708 391.08466252369544 337.3333270171195 404.414662893513 343.99999386874117 404.414662893513C350.66666072036287 404.414662893513 353.33332746101155 391.08466252369544 359.99999431263325 390.7346625139853C366.66666116425495 390.3846625042752 369.3333279049036 402.4346628385814 375.99999475652527 402.73466284690437C382.66666160814697 403.03466285522734 385.33332834879565 391.32466253035386 391.99999520041735 392.1746625539356C398.66666205203904 393.0246625775174 401.3333287926877 406.8146629600968 407.9999956443094 406.8146629600968C414.66666249593106 406.8146629600968 417.33332923657974 392.3246625580971 423.99999608820144 392.1746625539356C430.66666293982314 392.0246625497741 433.3333296804718 404.94466290821697 439.9999965320935 406.0946629401217C446.6666633837152 407.24466297202645 449.3333301243639 397.04466268904525 455.9999969759856 397.69466270707835C462.6666638276073 398.3446627251115 465.333330568256 410.2146630544239 471.9999974198777 409.2146630266807C478.6666642714993 408.2146629989374 484.66666443795884 396.29466266823783 487.9999978637697 392.89466257391075 " transform="rotate(24, 400, 400)"></path><path d="M322.9999929046631 402.3928291565763C325.9166596522476 400.2053290958879 331.1666597978997 391.58657885677576 336.99999329306866 391.8928288652721C342.8333267882376 392.1990788737685 345.1666601863052 403.8628291973589 350.99999368147417 403.8628291973589C356.8333271766432 403.8628291973589 359.1666605747108 392.1990788737685 364.9999940698798 391.8928288652721C370.83332756504876 391.58657885677576 373.1666609631163 402.1303291492937 378.9999944582853 402.3928291565763C384.8333279534543 402.6553291638589 387.1666613515219 392.4090788795946 392.99999484669087 393.15282890022866C398.83332834185984 393.8965789208627 401.1666617399274 405.96282925561974 406.99999523509643 405.96282925561974C412.8333287302654 405.96282925561974 415.166662128333 393.28407890386995 420.99999562350195 393.15282890022866C426.8333291186709 393.02157889658736 429.16666251673854 404.3265792102248 434.9999960119075 405.33282923814147C440.8333295070765 406.3390792660581 443.1666629051441 397.41407901844957 448.9999964003131 397.98282903422853C454.83332989548205 398.55157905000755 457.1666632935496 408.9378293381559 462.9999967887186 408.06282931388057C468.83333028388756 407.1878292896052 474.08333042953967 396.7578290002431 476.99999717712416 393.78282891770687 " transform="rotate(21, 400, 400)"></path><path d="M333.99999282836916 402.05099880410836C336.4999928977273 400.17599875208975 340.9999930225719 392.78849854713644 345.9999931612882 393.05099855441904C350.99999330000446 393.31349856170164 352.999993355491 403.31099883906484 357.9999934942073 403.31099883906484C362.9999936329235 403.31099883906484 364.99999368841003 393.31349856170164 369.9999938271263 393.05099855441904C374.9999939658426 392.78849854713644 376.99999402132903 401.8259987978661 381.99999416004533 402.05099880410836C386.99999429876164 402.2759988103506 388.9999943542481 393.49349856669545 393.99999449296433 394.13099858438176C398.99999463168064 394.7684986020681 400.99999468716715 405.1109988890027 405.9999948258834 405.1109988890027C410.9999949645997 405.1109988890027 412.9999950200862 394.24349858750287 417.99999515880245 394.13099858438176C422.9999952975187 394.01849858126064 424.99999535300526 403.7084988500928 429.9999954917215 404.5709988740213C434.99999563043775 405.4334988979499 436.9999956859243 397.783498685714 441.99999582464056 398.2709986992388C446.9999959633568 398.7584987127637 448.9999960188433 407.660998959748 453.9999961575596 406.91099893894057C458.99999629627587 406.1609989181331 463.4999964211205 397.22099867010843 465.9999964904786 394.67099859936314 " transform="rotate(18, 400, 400)"></path><path d="M344.99999656677244 401.7091651137803C347.08332995790425 400.1466650704314 350.83333006194147 393.990414899637 354.99999684420504 394.20916490570585C359.16666362646856 394.4279149117747 360.833330339374 402.75916514291066 364.99999712163753 402.75916514291066C369.1666639039011 402.75916514291066 370.8333306168065 394.4279149117747 374.9999973990701 394.20916490570585C379.16666418133366 393.990414899637 380.83333089423905 401.5216651085784 384.99999767650263 401.7091651137803C389.16666445876615 401.8966651189821 390.8333311716716 394.57791491593616 394.9999979539351 395.1091649306748C399.1666647361987 395.6404149454134 400.83333144910415 404.25916518452556 404.9999982313677 404.25916518452556C409.16666501363125 404.25916518452556 410.8333317265367 395.20291493327574 414.9999985088002 395.1091649306748C419.1666652910638 395.0154149280739 420.8333320039692 403.0904151521006 424.99999878623277 403.8091651720411C429.16666556849634 404.52791519198155 430.83333228140174 398.1529150151183 434.9999990636653 398.559165026389C439.1666658459289 398.9654150376597 440.8333325588343 406.38416524347997 444.9999993410978 405.75916522614045C449.1666661233614 405.1341652088009 452.9166662273986 397.6841650021137 454.99999961853035 395.55916494315926 " transform="rotate(15, 400, 400)"></path><path d="M355.9999964904785 401.3673333308008C357.66666320338396 400.1173332961217 360.6666632866137 395.1923331594862 363.99999671242455 395.3673331643413C367.3333301382354 395.54233316919635 368.66666350855974 402.2073333541052 371.9999969343706 402.2073333541052C375.33333036018144 402.2073333541052 376.6666637305058 395.54233316919635 379.9999971563166 395.3673331643413C383.3333305821275 395.1923331594862 384.6666639524518 401.21733332663933 387.9999973782626 401.3673333308008C391.3333308040735 401.5173333349623 392.66666417439785 395.66233317252556 395.99999760020864 396.08733318431644C399.33333102601955 396.5123331961073 400.6666643963439 403.40733338739705 403.9999978221547 403.40733338739705C407.33333124796553 403.40733338739705 408.6666646182899 396.1623331863972 411.9999980441007 396.08733318431644C415.33333146991157 396.0123331822357 416.6666648402359 402.4723333614571 419.99999826604676 403.0473333774095C423.3333316918576 403.6223333933618 424.66666506218195 398.52233325187126 427.9999984879928 398.8473332608878C431.33333191380365 399.17233326990436 432.666665284128 405.1073334345606 435.99999870993884 404.607333420689C439.33333213574963 404.10733340681736 442.3333322189794 398.14733324146755 443.9999989318849 396.447333194304 " transform="rotate(12, 400, 400)"></path><path d="M366.9999964141846 401.0254986867984C368.2499964488636 400.08799866078914 370.499996511286 396.3942485583125 372.9999965806441 396.5254985619538C375.49999665000223 396.6567485655951 376.49999667774546 401.6554987042767 378.99999674710364 401.6554987042767C381.49999681646176 401.6554987042767 382.49999684420504 396.6567485655951 384.9999969135631 396.5254985619538C387.4999969829213 396.3942485583125 388.4999970106645 400.9129986836773 390.9999970800227 401.0254986867984C393.4999971493808 401.1379986899195 394.49999717712404 396.74674856809196 396.99999724648217 397.06549857693517C399.49999731584035 397.3842485857783 400.4999973435836 402.5554987292456 402.9999974129417 402.5554987292456C405.4999974822998 402.5554987292456 406.4999975100431 397.1217485784957 408.9999975794012 397.06549857693517C411.49999764875935 397.0092485753746 412.49999767650263 401.8542487097907 414.99999774586075 402.28549872175495C417.4999978152189 402.7167487337192 418.49999784296216 398.89174862760126 420.9999979123203 399.13549863436367C423.4999979816784 399.3792486411261 424.4999980094217 403.83049876461826 426.9999980787798 403.45549875421455C429.49999814813793 403.08049874381084 431.74999821056025 398.6104986197985 432.99999824523934 397.3354985844258 " transform="rotate(9, 400, 400)"></path><path d="M378.0000001525879 400.68366642698186C378.8333335090406 400.0586664096423 380.3333335506555 397.59616634132453 382.0000002635609 397.68366634375207C383.66666697646633 397.7711663461796 384.3333336616285 401.103666438634 386.0000003745339 401.103666438634C387.66666708743935 401.103666438634 388.3333337726015 397.7711663461796 390.0000004855069 397.68366634375207C391.66666719841237 397.59616634132453 392.33333388357454 400.6086664249011 394.00000059647994 400.68366642698186C395.6666673093854 400.7586664290626 396.33333399454756 397.8311663478442 398.00000070745295 398.04366635373964C399.6666674203584 398.2561663596351 400.3333341055206 401.70366645528 402.000000818426 401.70366645528C403.6666675313314 401.70366645528 404.33333421649354 398.08116635478 406.000000929399 398.04366635373964C407.66666764230445 398.00616635269927 408.33333432746656 401.23616644231 410.000001040372 401.52366645028616C411.66666775327747 401.81116645826233 412.3333344384396 399.26116638751705 414.00000115134503 399.4236663920253C415.6666678642505 399.5861663965336 416.3333345494126 402.5536664788617 418.00000126231805 402.3036664719259C419.66666797522345 402.0536664649901 421.16666801683834 399.0736663823152 422.00000137329107 398.22366635873345 " transform="rotate(6, 400, 400)"></path><path d="M389.00000007629393 400.34183273665377C389.4166667545203 400.029332727984 390.1666667753277 398.7980826938251 391.00000013178044 398.8418326950389C391.83333348823317 398.88558269625264 392.1666668308143 400.55183274247986 393.00000018726695 400.55183274247986C393.8333335437197 400.55183274247986 394.16666688630073 398.88558269625264 395.00000024275346 398.8418326950389C395.8333335992062 398.7980826938251 396.1666669417873 400.3043327356134 397.00000029823997 400.34183273665377C397.8333336546927 400.37933273769414 398.16666699727375 398.9155826970849 399.0000003537265 399.02183270003263C399.8333337101792 399.1280827029804 400.16666705276026 400.8518327508028 401.000000409213 400.8518327508028C401.8333337656657 400.8518327508028 402.16666710824677 399.0405827005529 403.0000004646995 399.02183270003263C403.8333338211522 399.00308269951245 404.1666671637333 400.6180827443178 405.000000520186 400.76183274830595C405.83333387663873 400.90558275229404 406.1666672192198 399.63058271692137 407.0000005756725 399.7118327191755C407.83333393212524 399.79308272142964 408.1666672747063 401.2768327625937 409.000000631159 401.1518327591258C409.8333339876117 401.0268327556579 410.5833340084192 399.53683271432044 411.00000068664554 399.11183270252957 " transform="rotate(3, 400, 400)"></path></g></svg>